/* XPM */
static char *close_prelight_xpm[] = {
"30 37 38 1",
"a c #3E3E3E",
"b c #303030",
"c c #323232",
"d c #3C3C3C",
"e c #454545",
"f c #4A4A4A",
"g c #4D4D4D",
"h c #3B3B3B",
"i c #3F3F3F",
"j c #4F4F4F",
"k c #333333",
"l c #484848",
"m c #494949",
"n c #4C4C4C",
"o c #FFFFFF",
"p c #D3D3D3",
"q c #535353",
"r c #525252",
"s c #D0D0D0",
"t c #DFDFDF",
"u c #DEDEDE",
"v c #DCDCDC",
"w c #E2E2E2",
"x c #4B4B4B",
"y c #595959",
"z c #E5E5E5",
"A c #DDDDDD",
"B c #E8E8E8",
"C c #5B5B5B",
"D c #E9E9E9",
"E c #5D5D5D",
"F c #545454",
"G c #E3E3E3",
"H c #575757",
"I c #565656",
"J c #E0E0E0",
"K c #DBDBDB",
"L c #1F1F1F",
"aaaaaaaaaaaaaaaaaaaaaaaaaaaaaa",
"bbbbbbbbbbbbbbbbbbbbbbbbbbbbbb",
"bbbbbbbbbbbbbbbbbbbbbbbbbbbbbb",
"bbbbbbbbbbbbbbbbbbbbbbbbbbbbbb",
"bbbbbbbbbbbbbbbbbbbbbbbbbbbbbb",
"bbbbbbbbbbbbbbbbbbbbbbbbbbbbbb",
"bbbbbbbbbbbbbbbbbbbbbbbbbbbbbb",
"bbbbbbbbbbcdefggfehcbbbbbbbbbb",
"bbbbbbbbbigjjjjjjjjgibbbbbbbbb",
"bbbbbbbkljjjjjjjjjjjjmkbbbbbbb",
"bbbbbbknjjjjjjjjjjjjjjnkbbbbbb",
"bbbbbbmjjjjjjjjjjjjjjjjlbbbbbb",
"bbbbbijjjjjjjjjjjjjjjjjjibbbbb",
"bbbbcgjjjjjjjjjjjjjjjjjjgcbbbb",
"bbbbdjjjjjjopqjjrsojjjjjjhbbbb",
"bbbbejjjjjjtouqqvowjjjjjjebbbb",
"bbbbxjjjjjjyzouAoBCjjjjjjfbbbb",
"bbbbgjjjjjjjyzooDEjjjjjjjgbbbb",
"bbbbgjjjjjjjFuooGHjjjjjjjgbbbb",
"bbbbfjjjjjjIJowwowIjjjjjjfbbbb",
"bbbbejjjjjjKowIIwovjjjjjjebbbb",
"bbbbhjjjjjjovIjjIvojjjjjjhbbbb",
"bbbbcgjjjjjjjjjjjjjjjjjjgcbbbb",
"bbbbbijjjjjjjjjjjjjjjjjjibbbbb",
"bbbbbbljjjjjjjjjjjjjjjjlbbbbbb",
"bbbbbbknjjjjjjjjjjjjjjnkbbbbbb",
"bbbbbbbkljjjjjjjjjjjjmkbbbbbbb",
"bbbbbbbbbigjjjjjjjjgibbbbbbbbb",
"bbbbbbbbbbchefggfehcbbbbbbbbbb",
"bbbbbbbbbbbbbbbbbbbbbbbbbbbbbb",
"bbbbbbbbbbbbbbbbbbbbbbbbbbbbbb",
"bbbbbbbbbbbbbbbbbbbbbbbbbbbbbb",
"bbbbbbbbbbbbbbbbbbbbbbbbbbbbbb",
"bbbbbbbbbbbbbbbbbbbbbbbbbbbbbb",
"bbbbbbbbbbbbbbbbbbbbbbbbbbbbbb",
"bbbbbbbbbbbbbbbbbbbbbbbbbbbbbb",
"LLLLLLLLLLLLLLLLLLLLLLLLLLLLLL"};