/* XPM */
static char *close_active_xpm[] = {
"30 37 34 1",
"a c #3E3E3E",
"b c #303030",
"c c #323232",
"d c #383838",
"e c #414141",
"f c #434343",
"g c #3A3A3A",
"h c #444444",
"i c #404040",
"j c #424242",
"k c #FFFFFF",
"l c #D3D3D3",
"m c #535353",
"n c #525252",
"o c #D0D0D0",
"p c #373737",
"q c #DFDFDF",
"r c #DEDEDE",
"s c #DCDCDC",
"t c #E2E2E2",
"u c #595959",
"v c #E5E5E5",
"w c #DDDDDD",
"x c #E8E8E8",
"y c #5B5B5B",
"z c #E9E9E9",
"A c #5D5D5D",
"B c #545454",
"C c #E3E3E3",
"D c #575757",
"E c #565656",
"F c #E0E0E0",
"G c #DBDBDB",
"H c #1F1F1F",
"aaaaaaaaaaaaaaaaaaaaaaaaaaaaaa",
"bbbbbbbbbbbbbbbbbbbbbbbbbbbbbb",
"bbbbbbbbbbbbbbbbbbbbbbbbbbbbbb",
"bbbbbbbbbbbbbbbbbbbbbbbbbbbbbb",
"bbbbbbbbbbbbbbbbbbbbbbbbbbbbbb",
"bbbbbbbbbbbbbbbbbbbbbbbbbbbbbb",
"bbbbbbbbbbbbbbbbbbbbbbbbbbbbbb",
"bbbbbbbbbbcdaeffeadcbbbbbbbbbb",
"bbbbbbbbbgfhhhhhhhhfgbbbbbbbbb",
"bbbbbbbcihhhhhhhhhhhhicbbbbbbb",
"bbbbbbcjhhhhhhhhhhhhhhjcbbbbbb",
"bbbbbbihhhhhhhhhhhhhhhhibbbbbb",
"bbbbbghhhhhhhhhhhhhhhhhhgbbbbb",
"bbbbcfhhhhhhhhhhhhhhhhhhfcbbbb",
"bbbbdhhhhhhklmhhnokhhhhhhpbbbb",
"bbbbahhhhhhqkrmmskthhhhhhabbbb",
"bbbbehhhhhhuvkrwkxyhhhhhhebbbb",
"bbbbfhhhhhhhuvkkzAhhhhhhhfbbbb",
"bbbbfhhhhhhhBrkkCDhhhhhhhfbbbb",
"bbbbehhhhhhEFkttktEhhhhhhebbbb",
"bbbbahhhhhhGktEEtkshhhhhhabbbb",
"bbbbdhhhhhhksEhhEskhhhhhhpbbbb",
"bbbbcfhhhhhhhhhhhhhhhhhhfcbbbb",
"bbbbbghhhhhhhhhhhhhhhhhhgbbbbb",
"bbbbbbihhhhhhhhhhhhhhhhibbbbbb",
"bbbbbbcjhhhhhhhhhhhhhhjcbbbbbb",
"bbbbbbbcihhhhhhhhhhhhicbbbbbbb",
"bbbbbbbbbgfhhhhhhhhfgbbbbbbbbb",
"bbbbbbbbbbcpaeffeapcbbbbbbbbbb",
"bbbbbbbbbbbbbbbbbbbbbbbbbbbbbb",
"bbbbbbbbbbbbbbbbbbbbbbbbbbbbbb",
"bbbbbbbbbbbbbbbbbbbbbbbbbbbbbb",
"bbbbbbbbbbbbbbbbbbbbbbbbbbbbbb",
"bbbbbbbbbbbbbbbbbbbbbbbbbbbbbb",
"bbbbbbbbbbbbbbbbbbbbbbbbbbbbbb",
"bbbbbbbbbbbbbbbbbbbbbbbbbbbbbb",
"HHHHHHHHHHHHHHHHHHHHHHHHHHHHHH"};