/* XPM */
static char *close_pressed_xpm[] = {
"30 37 44 1",
"a c #3E3E3E",
"b c #303030",
"c c #343434",
"d c #484848",
"e c #5A5A5A",
"f c #646464",
"g c #6B6B6B",
"h c #323232",
"i c #4E4E4E",
"j c #6A6A6A",
"k c #6E6E6E",
"l c #4D4D4D",
"m c #363636",
"n c #616161",
"o c #626262",
"p c #373737",
"q c #676767",
"r c #FFFFFF",
"s c #D3D3D3",
"t c #535353",
"u c #525252",
"v c #D0D0D0",
"w c #DFDFDF",
"x c #DEDEDE",
"y c #DCDCDC",
"z c #E2E2E2",
"A c #656565",
"B c #595959",
"C c #E5E5E5",
"D c #DDDDDD",
"E c #E8E8E8",
"F c #5B5B5B",
"G c #E9E9E9",
"H c #5D5D5D",
"I c #545454",
"J c #E3E3E3",
"K c #575757",
"L c #565656",
"M c #E0E0E0",
"N c #DBDBDB",
"O c #474747",
"P c #4C4C4C",
"Q c #666666",
"R c #1F1F1F",
"aaaaaaaaaaaaaaaaaaaaaaaaaaaaaa",
"bbbbbbbbbbbbbbbbbbbbbbbbbbbbbb",
"bbbbbbbbbbbbbbbbbbbbbbbbbbbbbb",
"bbbbbbbbbbbbbbbbbbbbbbbbbbbbbb",
"bbbbbbbbbbbbbbbbbbbbbbbbbbbbbb",
"bbbbbbbbbbbbbbbbbbbbbbbbbbbbbb",
"bbbbbbbbbbbbbbbbbbbbbbbbbbbbbb",
"bbbbbbbbbbcdefggfedcbbbbbbbbbb",
"bbbbbbbbhijkkkkkkkkjlhbbbbbbbb",
"bbbbbbbmnkkkkkkkkkkkkopbbbbbbb",
"bbbbbbmqkkkkkkkkkkkkkkqmbbbbbb",
"bbbbbhokkkkkkkkkkkkkkkkohbbbbb",
"bbbbbikkkkkkkkkkkkkkkkkklbbbbb",
"bbbbcjkkkkkkkkkkkkkkkkkkjcbbbb",
"bbbbdkkkkkkrstkkuvrkkkkkkdbbbb",
"bbbbekkkkkkwrxttyrzkkkkkkebbbb",
"bbbbAkkkkkkBCrxDrEFkkkkkkfbbbb",
"bbbbjkkkkkkkBCrrGHkkkkkkkjbbbb",
"bbbbjkkkkkkkIxrrJKkkkkkkkjbbbb",
"bbbbAkkkkkkLMrzzrzLkkkkkkfbbbb",
"bbbbekkkkkkNrzLLzrykkkkkkebbbb",
"bbbbdkkkkkkryLkkLyrkkkkkkObbbb",
"bbbbcjkkkkkkkkkkkkkkkkkkjcbbbb",
"bbbbblkkkkkkkkkkkkkkkkkkPbbbbb",
"bbbbbhokkkkkkkkkkkkkkkknhbbbbb",
"bbbbbbmqkkkkkkkkkkkkkkQmbbbbbb",
"bbbbbbbmnkkkkkkkkkkkkopbbbbbbb",
"bbbbbbbbhljkkkkkkkkjPhbbbbbbbb",
"bbbbbbbbbbcdefjjfeOcbbbbbbbbbb",
"bbbbbbbbbbbbbbbbbbbbbbbbbbbbbb",
"bbbbbbbbbbbbbbbbbbbbbbbbbbbbbb",
"bbbbbbbbbbbbbbbbbbbbbbbbbbbbbb",
"bbbbbbbbbbbbbbbbbbbbbbbbbbbbbb",
"bbbbbbbbbbbbbbbbbbbbbbbbbbbbbb",
"bbbbbbbbbbbbbbbbbbbbbbbbbbbbbb",
"bbbbbbbbbbbbbbbbbbbbbbbbbbbbbb",
"RRRRRRRRRRRRRRRRRRRRRRRRRRRRRR"};