/* XPM */
static char *hide_inactive_xpm[] = {
"30 37 14 1",
"a c #333333",
"b c #242424",
"c c #262626",
"d c #2B2B2B",
"e c #2F2F2F",
"f c #323232",
"g c #2A2A2A",
"h c #2C2C2C",
"i c #343434",
"j c #313131",
"k c #2D2D2D",
"l c #919191",
"m c #929292",
"n c #171717",
"aaaaaaaaaaaaaaaaaaaaaaaaaaaaaa",
"bbbbbbbbbbbbbbbbbbbbbbbbbbbbbb",
"bbbbbbbbbbbbbbbbbbbbbbbbbbbbbb",
"bbbbbbbbbbbbbbbbbbbbbbbbbbbbbb",
"bbbbbbbbbbbbbbbbbbbbbbbbbbbbbb",
"bbbbbbbbbbbbbbbbbbbbbbbbbbbbbb",
"bbbbbbbbbbbbbbbbbbbbbbbbbbbbbb",
"bbbbbbbbbbcdefaafegcbbbbbbbbbb",
"bbbbbbbbbhaiiiiiiiiahbbbbbbbbb",
"bbbbbbbcjiiiiiiiiiiiifcbbbbbbb",
"bbbbbbcaiiiiiiiiiiiiiiacbbbbbb",
"bbbbbbfiiiiiiiiiiiiiiiijbbbbbb",
"bbbbbkiiiiiiiiiiiiiiiiiihbbbbb",
"bbbbcaiiiiiiiiiiiiiiiiiiacbbbb",
"bbbbdiiiiiiiiiiiiiiiiiiiigbbbb",
"bbbbeiiiiiiiiiiiiiiiiiiiiebbbb",
"bbbbaiiiiiiiiiiiiiiiiiiiifbbbb",
"bbbbaiiiiiiiiiiiiiiiiiiiiabbbb",
"bbbbaiiiiiiiiiiiiiiiiiiiiabbbb",
"bbbbfiiiiiiiiiiiiiiiiiiiifbbbb",
"bbbbeiiiiiilllllllliiiiiiebbbb",
"bbbbgiiiiiimmmmmmmmiiiiiigbbbb",
"bbbbcaiiiiiiiiiiiiiiiiiiabbbbb",
"bbbbbhiiiiiiiiiiiiiiiiiihbbbbb",
"bbbbbbjiiiiiiiiiiiiiiiijbbbbbb",
"bbbbbbcaiiiiiiiiiiiiiiacbbbbbb",
"bbbbbbbcjiiiiiiiiiiiifcbbbbbbb",
"bbbbbbbbbhaiiiiiiiiahbbbbbbbbb",
"bbbbbbbbbbcgefaafegbbbbbbbbbbb",
"bbbbbbbbbbbbbbbbbbbbbbbbbbbbbb",
"bbbbbbbbbbbbbbbbbbbbbbbbbbbbbb",
"bbbbbbbbbbbbbbbbbbbbbbbbbbbbbb",
"bbbbbbbbbbbbbbbbbbbbbbbbbbbbbb",
"bbbbbbbbbbbbbbbbbbbbbbbbbbbbbb",
"bbbbbbbbbbbbbbbbbbbbbbbbbbbbbb",
"bbbbbbbbbbbbbbbbbbbbbbbbbbbbbb",
"nnnnnnnnnnnnnnnnnnnnnnnnnnnnnn"};