/* XPM */
static char *hide_active_xpm[] = {
"30 37 14 1",
"a c #3E3E3E",
"b c #303030",
"c c #323232",
"d c #383838",
"e c #414141",
"f c #434343",
"g c #3A3A3A",
"h c #444444",
"i c #404040",
"j c #424242",
"k c #373737",
"l c #FEFEFE",
"m c #FFFFFF",
"n c #1F1F1F",
"aaaaaaaaaaaaaaaaaaaaaaaaaaaaaa",
"bbbbbbbbbbbbbbbbbbbbbbbbbbbbbb",
"bbbbbbbbbbbbbbbbbbbbbbbbbbbbbb",
"bbbbbbbbbbbbbbbbbbbbbbbbbbbbbb",
"bbbbbbbbbbbbbbbbbbbbbbbbbbbbbb",
"bbbbbbbbbbbbbbbbbbbbbbbbbbbbbb",
"bbbbbbbbbbbbbbbbbbbbbbbbbbbbbb",
"bbbbbbbbbbcdaeffeadcbbbbbbbbbb",
"bbbbbbbbbgfhhhhhhhhfgbbbbbbbbb",
"bbbbbbbcihhhhhhhhhhhhicbbbbbbb",
"bbbbbbcjhhhhhhhhhhhhhhjcbbbbbb",
"bbbbbbihhhhhhhhhhhhhhhhibbbbbb",
"bbbbbghhhhhhhhhhhhhhhhhhgbbbbb",
"bbbbcfhhhhhhhhhhhhhhhhhhfcbbbb",
"bbbbdhhhhhhhhhhhhhhhhhhhhkbbbb",
"bbbbahhhhhhhhhhhhhhhhhhhhabbbb",
"bbbbehhhhhhhhhhhhhhhhhhhhebbbb",
"bbbbfhhhhhhhhhhhhhhhhhhhhfbbbb",
"bbbbfhhhhhhhhhhhhhhhhhhhhfbbbb",
"bbbbehhhhhhhhhhhhhhhhhhhhebbbb",
"bbbbahhhhhhllllllllhhhhhhabbbb",
"bbbbdhhhhhhmmmmmmmmhhhhhhkbbbb",
"bbbbcfhhhhhhhhhhhhhhhhhhfcbbbb",
"bbbbbghhhhhhhhhhhhhhhhhhgbbbbb",
"bbbbbbihhhhhhhhhhhhhhhhibbbbbb",
"bbbbbbcjhhhhhhhhhhhhhhjcbbbbbb",
"bbbbbbbcihhhhhhhhhhhhicbbbbbbb",
"bbbbbbbbbgfhhhhhhhhfgbbbbbbbbb",
"bbbbbbbbbbckaeffeakcbbbbbbbbbb",
"bbbbbbbbbbbbbbbbbbbbbbbbbbbbbb",
"bbbbbbbbbbbbbbbbbbbbbbbbbbbbbb",
"bbbbbbbbbbbbbbbbbbbbbbbbbbbbbb",
"bbbbbbbbbbbbbbbbbbbbbbbbbbbbbb",
"bbbbbbbbbbbbbbbbbbbbbbbbbbbbbb",
"bbbbbbbbbbbbbbbbbbbbbbbbbbbbbb",
"bbbbbbbbbbbbbbbbbbbbbbbbbbbbbb",
"nnnnnnnnnnnnnnnnnnnnnnnnnnnnnn"};