/* XPM */
static char *maximize_toggled_pressed_xpm[] = {
"30 37 24 1",
"a c #3E3E3E",
"b c #303030",
"c c #343434",
"d c #484848",
"e c #5A5A5A",
"f c #646464",
"g c #6B6B6B",
"h c #323232",
"i c #4E4E4E",
"j c #6A6A6A",
"k c #6E6E6E",
"l c #4D4D4D",
"m c #363636",
"n c #616161",
"o c #626262",
"p c #373737",
"q c #676767",
"r c #FFFFFF",
"s c #656565",
"t c #FEFEFE",
"u c #474747",
"v c #4C4C4C",
"w c #666666",
"x c #1F1F1F",
"aaaaaaaaaaaaaaaaaaaaaaaaaaaaaa",
"bbbbbbbbbbbbbbbbbbbbbbbbbbbbbb",
"bbbbbbbbbbbbbbbbbbbbbbbbbbbbbb",
"bbbbbbbbbbbbbbbbbbbbbbbbbbbbbb",
"bbbbbbbbbbbbbbbbbbbbbbbbbbbbbb",
"bbbbbbbbbbbbbbbbbbbbbbbbbbbbbb",
"bbbbbbbbbbbbbbbbbbbbbbbbbbbbbb",
"bbbbbbbbbbcdefggfedcbbbbbbbbbb",
"bbbbbbbbhijkkkkkkkkjlhbbbbbbbb",
"bbbbbbbmnkkkkkkkkkkkkopbbbbbbb",
"bbbbbbmqkkkkkkkkkkkkkkqmbbbbbb",
"bbbbbhokkkkkkkkkkkkkkkkohbbbbb",
"bbbbbikkkkkkkkkkkkkkkkkklbbbbb",
"bbbbcjkkkkkkkkkkkkkkkkkkjcbbbb",
"bbbbdkkkkkkkkkkkkkkkkkkkkdbbbb",
"bbbbekkkkkkkrrrrrrkkkkkkkebbbb",
"bbbbskkkkkkkrrttrrkkkkkkkfbbbb",
"bbbbjkkkkkkkrtkkrrkkkkkkkjbbbb",
"bbbbjkkkkkkkrtkkrrkkkkkkkjbbbb",
"bbbbskkkkkkkrrrrrrkkkkkkkfbbbb",
"bbbbekkkkkkkrrrrrrkkkkkkkebbbb",
"bbbbdkkkkkkkkkkkkkkkkkkkkubbbb",
"bbbbcjkkkkkkkkkkkkkkkkkkjcbbbb",
"bbbbblkkkkkkkkkkkkkkkkkkvbbbbb",
"bbbbbhokkkkkkkkkkkkkkkknhbbbbb",
"bbbbbbmqkkkkkkkkkkkkkkwmbbbbbb",
"bbbbbbbmnkkkkkkkkkkkkopbbbbbbb",
"bbbbbbbbhljkkkkkkkkjvhbbbbbbbb",
"bbbbbbbbbbcdefjjfeucbbbbbbbbbb",
"bbbbbbbbbbbbbbbbbbbbbbbbbbbbbb",
"bbbbbbbbbbbbbbbbbbbbbbbbbbbbbb",
"bbbbbbbbbbbbbbbbbbbbbbbbbbbbbb",
"bbbbbbbbbbbbbbbbbbbbbbbbbbbbbb",
"bbbbbbbbbbbbbbbbbbbbbbbbbbbbbb",
"bbbbbbbbbbbbbbbbbbbbbbbbbbbbbb",
"bbbbbbbbbbbbbbbbbbbbbbbbbbbbbb",
"xxxxxxxxxxxxxxxxxxxxxxxxxxxxxx"};