/* XPM */
static char *top_right_active_xpm[] = {
"12 37 8 1",
"a c #3C3C3C",
"b c None",
"c c #313131",
"d c #323232",
"e c #303030",
"f c #3D3D3D",
"g c #3E3E3E",
"h c #1F1F1F",
"aaaaabbbbbbb",
"cddddaabbbbb",
"eeeecddabbbb",
"eeeeeeddabbb",
"eeeeeeeddabb",
"eeeeeeeeddab",
"eeeeeeeeedab",
"eeeeeeeeecda",
"eeeeeeeeeeda",
"eeeeeeeeeeda",
"eeeeeeeeeeda",
"eeeeeeeeeecf",
"eeeeeeeeeeeg",
"eeeeeeeeeeeg",
"eeeeeeeeeeeg",
"eeeeeeeeeeeg",
"eeeeeeeeeeeg",
"eeeeeeeeeeeg",
"eeeeeeeeeeeg",
"eeeeeeeeeeeg",
"eeeeeeeeeeeg",
"eeeeeeeeeeeg",
"eeeeeeeeeeeg",
"eeeeeeeeeeeg",
"eeeeeeeeeeeg",
"eeeeeeeeeeeg",
"eeeeeeeeeeeg",
"eeeeeeeeeeeg",
"eeeeeeeeeeeg",
"eeeeeeeeeeeg",
"eeeeeeeeeeeg",
"eeeeeeeeeeeg",
"eeeeeeeeeeeg",
"eeeeeeeeeeeg",
"eeeeeeeeeeeg",
"eeeeeeeeeeeg",
"hhhhhhhhhhhg"};