/* XPM */
static char *top_left_active_xpm[] = {
"12 37 8 1",
"a c None",
"b c #3C3C3C",
"c c #323232",
"d c #313131",
"e c #303030",
"f c #3D3D3D",
"g c #3E3E3E",
"h c #1F1F1F",
"aaaaaaabbbbb",
"aaaaabbccccd",
"aaaabccdeeee",
"aaabcceeeeee",
"aabcceeeeeee",
"abcceeeeeeee",
"abceeeeeeeee",
"bcdeeeeeeeee",
"bceeeeeeeeee",
"bceeeeeeeeee",
"bceeeeeeeeee",
"fdeeeeeeeeee",
"geeeeeeeeeee",
"geeeeeeeeeee",
"geeeeeeeeeee",
"geeeeeeeeeee",
"geeeeeeeeeee",
"geeeeeeeeeee",
"geeeeeeeeeee",
"geeeeeeeeeee",
"geeeeeeeeeee",
"geeeeeeeeeee",
"geeeeeeeeeee",
"geeeeeeeeeee",
"geeeeeeeeeee",
"geeeeeeeeeee",
"geeeeeeeeeee",
"geeeeeeeeeee",
"geeeeeeeeeee",
"geeeeeeeeeee",
"geeeeeeeeeee",
"geeeeeeeeeee",
"geeeeeeeeeee",
"geeeeeeeeeee",
"geeeeeeeeeee",
"geeeeeeeeeee",
"ghhhhhhhhhhh"};