/* XPM */
static char *top_left_inactive_xpm[] = {
"12 37 12 1",
"a c None",
"b c #323232",
"c c #313131",
"d c #2D2D2D",
"e c #282828",
"f c #272727",
"g c #252525",
"h c #2C2C2C",
"i c #242424",
"j c #262626",
"k c #333333",
"l c #171717",
"aaaaaaabbbbc",
"aaaaabbbdefg",
"aaaabbhgiiii",
"aaabcfiiiiii",
"aabcjiiiiiii",
"abbfiiiiiiii",
"abhiiiiiiiii",
"bbgiiiiiiiii",
"bdiiiiiiiiii",
"beiiiiiiiiii",
"bjiiiiiiiiii",
"bgiiiiiiiiii",
"kiiiiiiiiiii",
"kiiiiiiiiiii",
"kiiiiiiiiiii",
"kiiiiiiiiiii",
"kiiiiiiiiiii",
"kiiiiiiiiiii",
"kiiiiiiiiiii",
"kiiiiiiiiiii",
"kiiiiiiiiiii",
"kiiiiiiiiiii",
"kiiiiiiiiiii",
"kiiiiiiiiiii",
"kiiiiiiiiiii",
"kiiiiiiiiiii",
"kiiiiiiiiiii",
"kiiiiiiiiiii",
"kiiiiiiiiiii",
"kiiiiiiiiiii",
"kiiiiiiiiiii",
"kiiiiiiiiiii",
"kiiiiiiiiiii",
"kiiiiiiiiiii",
"kiiiiiiiiiii",
"kiiiiiiiiiii",
"klllllllllll"};