/* XPM */
static char *top_right_inactive_xpm[] = {
"12 37 12 1",
"a c #313131",
"b c #323232",
"c c None",
"d c #252525",
"e c #272727",
"f c #282828",
"g c #2D2D2D",
"h c #242424",
"i c #2C2C2C",
"j c #262626",
"k c #333333",
"l c #171717",
"abbbbccccccc",
"defgbbbccccc",
"hhhhdibbcccc",
"hhhhhheabccc",
"hhhhhhhjabcc",
"hhhhhhhhebbc",
"hhhhhhhhhibc",
"hhhhhhhhhdbb",
"hhhhhhhhhhgb",
"hhhhhhhhhhfb",
"hhhhhhhhhhjb",
"hhhhhhhhhhdb",
"hhhhhhhhhhhk",
"hhhhhhhhhhhk",
"hhhhhhhhhhhk",
"hhhhhhhhhhhk",
"hhhhhhhhhhhk",
"hhhhhhhhhhhk",
"hhhhhhhhhhhk",
"hhhhhhhhhhhk",
"hhhhhhhhhhhk",
"hhhhhhhhhhhk",
"hhhhhhhhhhhk",
"hhhhhhhhhhhk",
"hhhhhhhhhhhk",
"hhhhhhhhhhhk",
"hhhhhhhhhhhk",
"hhhhhhhhhhhk",
"hhhhhhhhhhhk",
"hhhhhhhhhhhk",
"hhhhhhhhhhhk",
"hhhhhhhhhhhk",
"hhhhhhhhhhhk",
"hhhhhhhhhhhk",
"hhhhhhhhhhhk",
"hhhhhhhhhhhk",
"lllllllllllk"};