/* XPM */
static char *close_inactive_xpm[] = {
"30 37 25 1",
"a c #FAFAFA",
"b c #F6F6F6",
"c c #F3F3F3",
"d c #F1F1F1",
"e c #F0F0F0",
"f c #F5F5F5",
"g c #F2F2F2",
"h c #949494",
"i c #AAAAAA",
"j c #E8E8E8",
"k c #E9E9E9",
"l c #ABABAB",
"m c #A3A3A3",
"n c #A4A4A4",
"o c #A5A5A5",
"p c #A2A2A2",
"q c #E6E6E6",
"r c #A1A1A1",
"s c #A0A0A0",
"t c #E4E4E4",
"u c #9F9F9F",
"v c #E3E3E3",
"w c #E7E7E7",
"x c #A6A6A6",
"y c #DDDDDD",
"aaaaaaaaaaaaaaaaaaaaaaaaaaaaaa",
"aaaaaaaaaaaaaaaaaaaaaaaaaaaaaa",
"aaaaaaaaaaaaaaaaaaaaaaaaaaaaaa",
"aaaaaaaaaaaaaaaaaaaaaaaaaaaaaa",
"aaaaaaaaaaaaaaaaaaaaaaaaaaaaaa",
"aaaaaaaaaaaaaaaaaaaaaaaaaaaaaa",
"aaaaaaaaaaaaaaaaaaaaaaaaaaaaaa",
"aaaaaaaaaaabcdeedcbaaaaaaaaaaa",
"aaaaaaaaafeeeeeeeeeefaaaaaaaaa",
"aaaaaaaageeeeeeeeeeeegaaaaaaaa",
"aaaaaaadeeeeeeeeeeeeeedaaaaaaa",
"aaaaaageeeeeeeeeeeeeeeegaaaaaa",
"aaaaafeeeeeeeeeeeeeeeeeefaaaaa",
"aaaaaeeeeeeeeeeeeeeeeeeeeaaaaa",
"aaaabeeeeeehijeeklheeeeeebaaaa",
"aaaaceeeeeemhnjjohpeeeeeecaaaa",
"aaaadeeeeeeqrhnohsteeeeeedaaaa",
"aaaaeeeeeeeeqrhhuveeeeeeeeaaaa",
"aaaaeeeeeeeewnhhpqeeeeeeeeaaaa",
"aaaadeeeeeewmhpphpweeeeeedaaaa",
"aaaaceeeeeexhpwwphoeeeeeecaaaa",
"aaaabeeeeeehoweewoheeeeeebaaaa",
"aaaaaeeeeeeeeeeeeeeeeeeeeaaaaa",
"aaaaafeeeeeeeeeeeeeeeeeefaaaaa",
"aaaaaageeeeeeeeeeeeeeeegaaaaaa",
"aaaaaaadeeeeeeeeeeeeeedaaaaaaa",
"aaaaaaaageeeeeeeeeeeegaaaaaaaa",
"aaaaaaaaafeeeeeeeeeefaaaaaaaaa",
"aaaaaaaaaaabcdeedcbaaaaaaaaaaa",
"aaaaaaaaaaaaaaaaaaaaaaaaaaaaaa",
"aaaaaaaaaaaaaaaaaaaaaaaaaaaaaa",
"aaaaaaaaaaaaaaaaaaaaaaaaaaaaaa",
"aaaaaaaaaaaaaaaaaaaaaaaaaaaaaa",
"aaaaaaaaaaaaaaaaaaaaaaaaaaaaaa",
"aaaaaaaaaaaaaaaaaaaaaaaaaaaaaa",
"aaaaaaaaaaaaaaaaaaaaaaaaaaaaaa",
"yyyyyyyyyyyyyyyyyyyyyyyyyyyyyy"};