/* XPM */
static char *close_prelight_xpm[] = {
"30 37 39 1",
"a c #FFFFFF",
"b c #FDFDFD",
"c c #F3F3F3",
"d c #EAEAEA",
"e c #E6E6E6",
"f c #E2E2E2",
"g c #F4F4F4",
"h c #F1F1F1",
"i c #E3E3E3",
"j c #E1E1E1",
"k c #FCFCFC",
"l c #E7E7E7",
"m c #FBFBFB",
"n c #E4E4E4",
"o c #F0F0F0",
"p c #2F2F2F",
"q c #5B5B5B",
"r c #DBDBDB",
"s c #DDDDDD",
"t c #5E5E5E",
"u c #4E4E4E",
"v c #505050",
"w c #DCDCDC",
"x c #525252",
"y c #4C4C4C",
"z c #EBEBEB",
"A c #E5E5E5",
"B c #D7D7D7",
"C c #4A4A4A",
"D c #515151",
"E c #474747",
"F c #D3D3D3",
"G c #454545",
"H c #D2D2D2",
"I c #DADADA",
"J c #4B4B4B",
"K c #D8D8D8",
"L c #D9D9D9",
"M c #535353",
"aaaaaaaaaaaaaaaaaaaaaaaaaaaaaa",
"aaaaaaaaaaaaaaaaaaaaaaaaaaaaaa",
"aaaaaaaaaaaaaaaaaaaaaaaaaaaaaa",
"aaaaaaaaaaaaaaaaaaaaaaaaaaaaaa",
"aaaaaaaaaaaaaaaaaaaaaaaaaaaaaa",
"aaaaaaaaaaaaaaaaaaaaaaaaaaaaaa",
"aaaaaaaaaaaaaaaaaaaaaaaaaaaaaa",
"aaaaaaaaaabcdeffedgbaaaaaaaaaa",
"aaaaaaaaahijjjjjjjjihaaaaaaaaa",
"aaaaaaakljjjjjjjjjjjjlmaaaaaaa",
"aaaaaaknjjjjjjjjjjjjjjnkaaaaaa",
"aaaaaaljjjjjjjjjjjjjjjjlaaaaaa",
"aaaaaojjjjjjjjjjjjjjjjjjhaaaaa",
"aaaabijjjjjjjjjjjjjjjjjjibaaaa",
"aaaacjjjjjjpqrjjstpjjjjjjgaaaa",
"aaaadjjjjjjupvrwxpyjjjjjjzaaaa",
"aaaaAjjjjjjBCpvDpEFjjjjjjeaaaa",
"aaaafjjjjjjjBCppGHjjjjjjjfaaaa",
"aaaafjjjjjjjIvppJKjjjjjjjiaaaa",
"aaaaAjjjjjjLupyypyLjjjjjjeaaaa",
"aaaadjjjjjjMpyLLypxjjjjjjzaaaa",
"aaaagjjjjjjpxLjjLxpjjjjjjgaaaa",
"aaaabijjjjjjjjjjjjjjjjjjibaaaa",
"aaaaahjjjjjjjjjjjjjjjjjjhaaaaa",
"aaaaaaljjjjjjjjjjjjjjjjlaaaaaa",
"aaaaaaknjjjjjjjjjjjjjjnkaaaaaa",
"aaaaaaakljjjjjjjjjjjjlmaaaaaaa",
"aaaaaaaaahijjjjjjjjihaaaaaaaaa",
"aaaaaaaaaabgdeffezgbaaaaaaaaaa",
"aaaaaaaaaaaaaaaaaaaaaaaaaaaaaa",
"aaaaaaaaaaaaaaaaaaaaaaaaaaaaaa",
"aaaaaaaaaaaaaaaaaaaaaaaaaaaaaa",
"aaaaaaaaaaaaaaaaaaaaaaaaaaaaaa",
"aaaaaaaaaaaaaaaaaaaaaaaaaaaaaa",
"aaaaaaaaaaaaaaaaaaaaaaaaaaaaaa",
"aaaaaaaaaaaaaaaaaaaaaaaaaaaaaa",
"jjjjjjjjjjjjjjjjjjjjjjjjjjjjjj"};