/* XPM */
static char *close_active_xpm[] = {
"30 37 35 1",
"a c #FFFFFF",
"b c #F7F7F7",
"c c #F1F1F1",
"d c #EEEEEE",
"e c #ECECEC",
"f c #F5F5F5",
"g c #EBEBEB",
"h c #FDFDFD",
"i c #EFEFEF",
"j c #EDEDED",
"k c #F6F6F6",
"l c #2F2F2F",
"m c #5B5B5B",
"n c #DBDBDB",
"o c #DDDDDD",
"p c #5E5E5E",
"q c #4E4E4E",
"r c #505050",
"s c #DCDCDC",
"t c #525252",
"u c #4C4C4C",
"v c #D7D7D7",
"w c #4A4A4A",
"x c #515151",
"y c #474747",
"z c #D3D3D3",
"A c #454545",
"B c #D2D2D2",
"C c #DADADA",
"D c #4B4B4B",
"E c #D8D8D8",
"F c #D9D9D9",
"G c #535353",
"H c #F8F8F8",
"I c #E1E1E1",
"aaaaaaaaaaaaaaaaaaaaaaaaaaaaaa",
"aaaaaaaaaaaaaaaaaaaaaaaaaaaaaa",
"aaaaaaaaaaaaaaaaaaaaaaaaaaaaaa",
"aaaaaaaaaaaaaaaaaaaaaaaaaaaaaa",
"aaaaaaaaaaaaaaaaaaaaaaaaaaaaaa",
"aaaaaaaaaaaaaaaaaaaaaaaaaaaaaa",
"aaaaaaaaaaaaaaaaaaaaaaaaaaaaaa",
"aaaaaaaaaaabcdeedcbaaaaaaaaaaa",
"aaaaaaaaafeggggggggefaaaaaaaaa",
"aaaaaaahiggggggggggggihaaaaaaa",
"aaaaaahjggggggggggggggjhaaaaaa",
"aaaaaaiggggggggggggggggiaaaaaa",
"aaaaafggggggggggggggggggkaaaaa",
"aaaaaeggggggggggggggggggeaaaaa",
"aaaabgggggglmnggoplggggggbaaaa",
"aaaacggggggqlrnstluggggggcaaaa",
"aaaadggggggvwlrxlyzggggggdaaaa",
"aaaaegggggggvwllABgggggggeaaaa",
"aaaaegggggggCrllDEgggggggeaaaa",
"aaaadggggggFqluuluFggggggdaaaa",
"aaaacggggggGluFFultggggggcaaaa",
"aaaabggggggltFggFtlggggggHaaaa",
"aaaaaeggggggggggggggggggeaaaaa",
"aaaaafggggggggggggggggggkaaaaa",
"aaaaaaiggggggggggggggggiaaaaaa",
"aaaaaahjggggggggggggggjhaaaaaa",
"aaaaaaahiggggggggggggihaaaaaaa",
"aaaaaaaaakeggggggggekaaaaaaaaa",
"aaaaaaaaaaabcdeedcHaaaaaaaaaaa",
"aaaaaaaaaaaaaaaaaaaaaaaaaaaaaa",
"aaaaaaaaaaaaaaaaaaaaaaaaaaaaaa",
"aaaaaaaaaaaaaaaaaaaaaaaaaaaaaa",
"aaaaaaaaaaaaaaaaaaaaaaaaaaaaaa",
"aaaaaaaaaaaaaaaaaaaaaaaaaaaaaa",
"aaaaaaaaaaaaaaaaaaaaaaaaaaaaaa",
"aaaaaaaaaaaaaaaaaaaaaaaaaaaaaa",
"IIIIIIIIIIIIIIIIIIIIIIIIIIIIII"};