/* XPM */
static char *close_pressed_xpm[] = {
"30 37 45 1",
"a c #FFFFFF",
"b c #FBFBFB",
"c c #E8E8E8",
"d c #D5D5D5",
"e c #CBCBCB",
"f c #C5C5C5",
"g c #FDFDFD",
"h c #E2E2E2",
"i c #C2C2C2",
"j c #C6C6C6",
"k c #F9F9F9",
"l c #CFCFCF",
"m c #CDCDCD",
"n c #F8F8F8",
"o c #C8C8C8",
"p c #C9C9C9",
"q c #CECECE",
"r c #E1E1E1",
"s c #E7E7E7",
"t c #2F2F2F",
"u c #5B5B5B",
"v c #DBDBDB",
"w c #DDDDDD",
"x c #5E5E5E",
"y c #4E4E4E",
"z c #505050",
"A c #DCDCDC",
"B c #525252",
"C c #4C4C4C",
"D c #D7D7D7",
"E c #4A4A4A",
"F c #515151",
"G c #474747",
"H c #D3D3D3",
"I c #454545",
"J c #D2D2D2",
"K c #DADADA",
"L c #4B4B4B",
"M c #D8D8D8",
"N c #D9D9D9",
"O c #CCCCCC",
"P c #535353",
"Q c #D6D6D6",
"R c #E9E9E9",
"S c #E3E3E3",
"aaaaaaaaaaaaaaaaaaaaaaaaaaaaaa",
"aaaaaaaaaaaaaaaaaaaaaaaaaaaaaa",
"aaaaaaaaaaaaaaaaaaaaaaaaaaaaaa",
"aaaaaaaaaaaaaaaaaaaaaaaaaaaaaa",
"aaaaaaaaaaaaaaaaaaaaaaaaaaaaaa",
"aaaaaaaaaaaaaaaaaaaaaaaaaaaaaa",
"aaaaaaaaaaaaaaaaaaaaaaaaaaaaaa",
"aaaaaaaaaabcdeffedcbaaaaaaaaaa",
"aaaaaaaaghfiiiiiiiijhgaaaaaaaa",
"aaaaaaakliiiiiiiiiiiimnaaaaaaa",
"aaaaaanoiiiiiiiiiiiiiipkaaaaaa",
"aaaaagqiiiiiiiiiiiiiiiiqgaaaaa",
"aaaaariiiiiiiiiiiiiiiiiihaaaaa",
"aaaabfiiiiiiiiiiiiiiiiiijbaaaa",
"aaaasiiiiiituviiwxtiiiiiicaaaa",
"aaaadiiiiiiytzvABtCiiiiiidaaaa",
"aaaaeiiiiiiDEtzFtGHiiiiiieaaaa",
"aaaafiiiiiiiDEttIJiiiiiiifaaaa",
"aaaafiiiiiiiKzttLMiiiiiiifaaaa",
"aaaaeiiiiiiNytCCtCNiiiiiiOaaaa",
"aaaadiiiiiiPtCNNCtBiiiiiiQaaaa",
"aaaaciiiiiitBNiiNBtiiiiiiRaaaa",
"aaaabjiiiiiiiiiiiiiiiiiijbaaaa",
"aaaaahiiiiiiiiiiiiiiiiiiSaaaaa",
"aaaaagqiiiiiiiiiiiiiiiilgaaaaa",
"aaaaaakpiiiiiiiiiiiiiipkaaaaaa",
"aaaaaaakliiiiiiiiiiiiqnaaaaaaa",
"aaaaaaaaghjiiiiiiiijSgaaaaaaaa",
"aaaaaaaaaabcdOffOdcbaaaaaaaaaa",
"aaaaaaaaaaaaaaaaaaaaaaaaaaaaaa",
"aaaaaaaaaaaaaaaaaaaaaaaaaaaaaa",
"aaaaaaaaaaaaaaaaaaaaaaaaaaaaaa",
"aaaaaaaaaaaaaaaaaaaaaaaaaaaaaa",
"aaaaaaaaaaaaaaaaaaaaaaaaaaaaaa",
"aaaaaaaaaaaaaaaaaaaaaaaaaaaaaa",
"aaaaaaaaaaaaaaaaaaaaaaaaaaaaaa",
"rrrrrrrrrrrrrrrrrrrrrrrrrrrrrr"};