/* XPM */
static char *hide_active_xpm[] = {
"30 37 15 1",
"a c #FFFFFF",
"b c #F7F7F7",
"c c #F1F1F1",
"d c #EEEEEE",
"e c #ECECEC",
"f c #F5F5F5",
"g c #EBEBEB",
"h c #FDFDFD",
"i c #EFEFEF",
"j c #EDEDED",
"k c #F6F6F6",
"l c #303030",
"m c #2F2F2F",
"n c #F8F8F8",
"o c #E1E1E1",
"aaaaaaaaaaaaaaaaaaaaaaaaaaaaaa",
"aaaaaaaaaaaaaaaaaaaaaaaaaaaaaa",
"aaaaaaaaaaaaaaaaaaaaaaaaaaaaaa",
"aaaaaaaaaaaaaaaaaaaaaaaaaaaaaa",
"aaaaaaaaaaaaaaaaaaaaaaaaaaaaaa",
"aaaaaaaaaaaaaaaaaaaaaaaaaaaaaa",
"aaaaaaaaaaaaaaaaaaaaaaaaaaaaaa",
"aaaaaaaaaaabcdeedcbaaaaaaaaaaa",
"aaaaaaaaafeggggggggefaaaaaaaaa",
"aaaaaaahiggggggggggggihaaaaaaa",
"aaaaaahjggggggggggggggjhaaaaaa",
"aaaaaaiggggggggggggggggiaaaaaa",
"aaaaafggggggggggggggggggkaaaaa",
"aaaaaeggggggggggggggggggeaaaaa",
"aaaabggggggggggggggggggggbaaaa",
"aaaacggggggggggggggggggggcaaaa",
"aaaadggggggggggggggggggggdaaaa",
"aaaaeggggggggggggggggggggeaaaa",
"aaaaeggggggggggggggggggggeaaaa",
"aaaadggggggggggggggggggggdaaaa",
"aaaacggggggllllllllggggggcaaaa",
"aaaabggggggmmmmmmmmggggggnaaaa",
"aaaaaeggggggggggggggggggeaaaaa",
"aaaaafggggggggggggggggggkaaaaa",
"aaaaaaiggggggggggggggggiaaaaaa",
"aaaaaahjggggggggggggggjhaaaaaa",
"aaaaaaahiggggggggggggihaaaaaaa",
"aaaaaaaaakeggggggggekaaaaaaaaa",
"aaaaaaaaaaabcdeedcnaaaaaaaaaaa",
"aaaaaaaaaaaaaaaaaaaaaaaaaaaaaa",
"aaaaaaaaaaaaaaaaaaaaaaaaaaaaaa",
"aaaaaaaaaaaaaaaaaaaaaaaaaaaaaa",
"aaaaaaaaaaaaaaaaaaaaaaaaaaaaaa",
"aaaaaaaaaaaaaaaaaaaaaaaaaaaaaa",
"aaaaaaaaaaaaaaaaaaaaaaaaaaaaaa",
"aaaaaaaaaaaaaaaaaaaaaaaaaaaaaa",
"oooooooooooooooooooooooooooooo"};