/* XPM */
static char *hide_pressed_xpm[] = {
"30 37 25 1",
"a c #FFFFFF",
"b c #FBFBFB",
"c c #E8E8E8",
"d c #D5D5D5",
"e c #CBCBCB",
"f c #C5C5C5",
"g c #FDFDFD",
"h c #E2E2E2",
"i c #C2C2C2",
"j c #C6C6C6",
"k c #F9F9F9",
"l c #CFCFCF",
"m c #CDCDCD",
"n c #F8F8F8",
"o c #C8C8C8",
"p c #C9C9C9",
"q c #CECECE",
"r c #E1E1E1",
"s c #E7E7E7",
"t c #CCCCCC",
"u c #303030",
"v c #D6D6D6",
"w c #2F2F2F",
"x c #E9E9E9",
"y c #E3E3E3",
"aaaaaaaaaaaaaaaaaaaaaaaaaaaaaa",
"aaaaaaaaaaaaaaaaaaaaaaaaaaaaaa",
"aaaaaaaaaaaaaaaaaaaaaaaaaaaaaa",
"aaaaaaaaaaaaaaaaaaaaaaaaaaaaaa",
"aaaaaaaaaaaaaaaaaaaaaaaaaaaaaa",
"aaaaaaaaaaaaaaaaaaaaaaaaaaaaaa",
"aaaaaaaaaaaaaaaaaaaaaaaaaaaaaa",
"aaaaaaaaaabcdeffedcbaaaaaaaaaa",
"aaaaaaaaghfiiiiiiiijhgaaaaaaaa",
"aaaaaaakliiiiiiiiiiiimnaaaaaaa",
"aaaaaanoiiiiiiiiiiiiiipkaaaaaa",
"aaaaagqiiiiiiiiiiiiiiiiqgaaaaa",
"aaaaariiiiiiiiiiiiiiiiiihaaaaa",
"aaaabfiiiiiiiiiiiiiiiiiijbaaaa",
"aaaasiiiiiiiiiiiiiiiiiiiicaaaa",
"aaaadiiiiiiiiiiiiiiiiiiiidaaaa",
"aaaaeiiiiiiiiiiiiiiiiiiiieaaaa",
"aaaafiiiiiiiiiiiiiiiiiiiifaaaa",
"aaaafiiiiiiiiiiiiiiiiiiiifaaaa",
"aaaaeiiiiiiiiiiiiiiiiiiiitaaaa",
"aaaadiiiiiiuuuuuuuuiiiiiivaaaa",
"aaaaciiiiiiwwwwwwwwiiiiiixaaaa",
"aaaabjiiiiiiiiiiiiiiiiiijbaaaa",
"aaaaahiiiiiiiiiiiiiiiiiiyaaaaa",
"aaaaagqiiiiiiiiiiiiiiiilgaaaaa",
"aaaaaakpiiiiiiiiiiiiiipkaaaaaa",
"aaaaaaakliiiiiiiiiiiiqnaaaaaaa",
"aaaaaaaaghjiiiiiiiijygaaaaaaaa",
"aaaaaaaaaabcdtfftdcbaaaaaaaaaa",
"aaaaaaaaaaaaaaaaaaaaaaaaaaaaaa",
"aaaaaaaaaaaaaaaaaaaaaaaaaaaaaa",
"aaaaaaaaaaaaaaaaaaaaaaaaaaaaaa",
"aaaaaaaaaaaaaaaaaaaaaaaaaaaaaa",
"aaaaaaaaaaaaaaaaaaaaaaaaaaaaaa",
"aaaaaaaaaaaaaaaaaaaaaaaaaaaaaa",
"aaaaaaaaaaaaaaaaaaaaaaaaaaaaaa",
"rrrrrrrrrrrrrrrrrrrrrrrrrrrrrr"};