/* XPM */
static char *left_inactive_xpm[] = {
"5 1 2 1",
"a c #FFFFFF",
"b c #F6F5F4",
"abbbb"};