/* XPM */
static char *maximize_toggled_prelight_xpm[] = {
"30 37 20 1",
"a c #FFFFFF",
"b c #FDFDFD",
"c c #F3F3F3",
"d c #EAEAEA",
"e c #E6E6E6",
"f c #E2E2E2",
"g c #F4F4F4",
"h c #F1F1F1",
"i c #E3E3E3",
"j c #E1E1E1",
"k c #FCFCFC",
"l c #E7E7E7",
"m c #FBFBFB",
"n c #E4E4E4",
"o c #F0F0F0",
"p c #2F2F2F",
"q c #EBEBEB",
"r c #E5E5E5",
"s c #303030",
"t c #313131",
"aaaaaaaaaaaaaaaaaaaaaaaaaaaaaa",
"aaaaaaaaaaaaaaaaaaaaaaaaaaaaaa",
"aaaaaaaaaaaaaaaaaaaaaaaaaaaaaa",
"aaaaaaaaaaaaaaaaaaaaaaaaaaaaaa",
"aaaaaaaaaaaaaaaaaaaaaaaaaaaaaa",
"aaaaaaaaaaaaaaaaaaaaaaaaaaaaaa",
"aaaaaaaaaaaaaaaaaaaaaaaaaaaaaa",
"aaaaaaaaaabcdeffedgbaaaaaaaaaa",
"aaaaaaaaahijjjjjjjjihaaaaaaaaa",
"aaaaaaakljjjjjjjjjjjjlmaaaaaaa",
"aaaaaaknjjjjjjjjjjjjjjnkaaaaaa",
"aaaaaaljjjjjjjjjjjjjjjjlaaaaaa",
"aaaaaojjjjjjjjjjjjjjjjjjhaaaaa",
"aaaabijjjjjjjjjjjjjjjjjjibaaaa",
"aaaacjjjjjjjjjjjjjjjjjjjjgaaaa",
"aaaadjjjjjjjppppppjjjjjjjqaaaa",
"aaaarjjjjjjjppssppjjjjjjjeaaaa",
"aaaafjjjjjjjptjjppjjjjjjjfaaaa",
"aaaafjjjjjjjptjjppjjjjjjjiaaaa",
"aaaarjjjjjjjppppppjjjjjjjeaaaa",
"aaaadjjjjjjjppppppjjjjjjjqaaaa",
"aaaagjjjjjjjjjjjjjjjjjjjjgaaaa",
"aaaabijjjjjjjjjjjjjjjjjjibaaaa",
"aaaaahjjjjjjjjjjjjjjjjjjhaaaaa",
"aaaaaaljjjjjjjjjjjjjjjjlaaaaaa",
"aaaaaaknjjjjjjjjjjjjjjnkaaaaaa",
"aaaaaaakljjjjjjjjjjjjlmaaaaaaa",
"aaaaaaaaahijjjjjjjjihaaaaaaaaa",
"aaaaaaaaaabgdeffeqgbaaaaaaaaaa",
"aaaaaaaaaaaaaaaaaaaaaaaaaaaaaa",
"aaaaaaaaaaaaaaaaaaaaaaaaaaaaaa",
"aaaaaaaaaaaaaaaaaaaaaaaaaaaaaa",
"aaaaaaaaaaaaaaaaaaaaaaaaaaaaaa",
"aaaaaaaaaaaaaaaaaaaaaaaaaaaaaa",
"aaaaaaaaaaaaaaaaaaaaaaaaaaaaaa",
"aaaaaaaaaaaaaaaaaaaaaaaaaaaaaa",
"jjjjjjjjjjjjjjjjjjjjjjjjjjjjjj"};