/* XPM */
static char *maximize_toggled_pressed_xpm[] = {
"30 37 26 1",
"a c #FFFFFF",
"b c #FBFBFB",
"c c #E8E8E8",
"d c #D5D5D5",
"e c #CBCBCB",
"f c #C5C5C5",
"g c #FDFDFD",
"h c #E2E2E2",
"i c #C2C2C2",
"j c #C6C6C6",
"k c #F9F9F9",
"l c #CFCFCF",
"m c #CDCDCD",
"n c #F8F8F8",
"o c #C8C8C8",
"p c #C9C9C9",
"q c #CECECE",
"r c #E1E1E1",
"s c #E7E7E7",
"t c #2F2F2F",
"u c #303030",
"v c #313131",
"w c #CCCCCC",
"x c #D6D6D6",
"y c #E9E9E9",
"z c #E3E3E3",
"aaaaaaaaaaaaaaaaaaaaaaaaaaaaaa",
"aaaaaaaaaaaaaaaaaaaaaaaaaaaaaa",
"aaaaaaaaaaaaaaaaaaaaaaaaaaaaaa",
"aaaaaaaaaaaaaaaaaaaaaaaaaaaaaa",
"aaaaaaaaaaaaaaaaaaaaaaaaaaaaaa",
"aaaaaaaaaaaaaaaaaaaaaaaaaaaaaa",
"aaaaaaaaaaaaaaaaaaaaaaaaaaaaaa",
"aaaaaaaaaabcdeffedcbaaaaaaaaaa",
"aaaaaaaaghfiiiiiiiijhgaaaaaaaa",
"aaaaaaakliiiiiiiiiiiimnaaaaaaa",
"aaaaaanoiiiiiiiiiiiiiipkaaaaaa",
"aaaaagqiiiiiiiiiiiiiiiiqgaaaaa",
"aaaaariiiiiiiiiiiiiiiiiihaaaaa",
"aaaabfiiiiiiiiiiiiiiiiiijbaaaa",
"aaaasiiiiiiiiiiiiiiiiiiiicaaaa",
"aaaadiiiiiiittttttiiiiiiidaaaa",
"aaaaeiiiiiiittuuttiiiiiiieaaaa",
"aaaafiiiiiiitviittiiiiiiifaaaa",
"aaaafiiiiiiitviittiiiiiiifaaaa",
"aaaaeiiiiiiittttttiiiiiiiwaaaa",
"aaaadiiiiiiittttttiiiiiiixaaaa",
"aaaaciiiiiiiiiiiiiiiiiiiiyaaaa",
"aaaabjiiiiiiiiiiiiiiiiiijbaaaa",
"aaaaahiiiiiiiiiiiiiiiiiizaaaaa",
"aaaaagqiiiiiiiiiiiiiiiilgaaaaa",
"aaaaaakpiiiiiiiiiiiiiipkaaaaaa",
"aaaaaaakliiiiiiiiiiiiqnaaaaaaa",
"aaaaaaaaghjiiiiiiiijzgaaaaaaaa",
"aaaaaaaaaabcdwffwdcbaaaaaaaaaa",
"aaaaaaaaaaaaaaaaaaaaaaaaaaaaaa",
"aaaaaaaaaaaaaaaaaaaaaaaaaaaaaa",
"aaaaaaaaaaaaaaaaaaaaaaaaaaaaaa",
"aaaaaaaaaaaaaaaaaaaaaaaaaaaaaa",
"aaaaaaaaaaaaaaaaaaaaaaaaaaaaaa",
"aaaaaaaaaaaaaaaaaaaaaaaaaaaaaa",
"aaaaaaaaaaaaaaaaaaaaaaaaaaaaaa",
"rrrrrrrrrrrrrrrrrrrrrrrrrrrrrr"};