/* XPM */
static char *maximize_active_xpm[] = {
"30 37 16 1",
"a c #FFFFFF",
"b c #F7F7F7",
"c c #F1F1F1",
"d c #EEEEEE",
"e c #ECECEC",
"f c #F5F5F5",
"g c #EBEBEB",
"h c #FDFDFD",
"i c #EFEFEF",
"j c #EDEDED",
"k c #F6F6F6",
"l c #2F2F2F",
"m c #303030",
"n c #313131",
"o c #F8F8F8",
"p c #E1E1E1",
"aaaaaaaaaaaaaaaaaaaaaaaaaaaaaa",
"aaaaaaaaaaaaaaaaaaaaaaaaaaaaaa",
"aaaaaaaaaaaaaaaaaaaaaaaaaaaaaa",
"aaaaaaaaaaaaaaaaaaaaaaaaaaaaaa",
"aaaaaaaaaaaaaaaaaaaaaaaaaaaaaa",
"aaaaaaaaaaaaaaaaaaaaaaaaaaaaaa",
"aaaaaaaaaaaaaaaaaaaaaaaaaaaaaa",
"aaaaaaaaaaabcdeedcbaaaaaaaaaaa",
"aaaaaaaaafeggggggggefaaaaaaaaa",
"aaaaaaahiggggggggggggihaaaaaaa",
"aaaaaahjggggggggggggggjhaaaaaa",
"aaaaaaiggggggggggggggggiaaaaaa",
"aaaaafggggggggggggggggggkaaaaa",
"aaaaaeggggggggggggggggggeaaaaa",
"aaaabggggggllllllllggggggbaaaa",
"aaaacggggggllmmmmllggggggcaaaa",
"aaaadgggggglnggggllggggggdaaaa",
"aaaaegggggglnggggllggggggeaaaa",
"aaaaegggggglnggggllggggggeaaaa",
"aaaadgggggglnggggllggggggdaaaa",
"aaaacggggggllllllllggggggcaaaa",
"aaaabggggggllllllllggggggoaaaa",
"aaaaaeggggggggggggggggggeaaaaa",
"aaaaafggggggggggggggggggkaaaaa",
"aaaaaaiggggggggggggggggiaaaaaa",
"aaaaaahjggggggggggggggjhaaaaaa",
"aaaaaaahiggggggggggggihaaaaaaa",
"aaaaaaaaakeggggggggekaaaaaaaaa",
"aaaaaaaaaaabcdeedcoaaaaaaaaaaa",
"aaaaaaaaaaaaaaaaaaaaaaaaaaaaaa",
"aaaaaaaaaaaaaaaaaaaaaaaaaaaaaa",
"aaaaaaaaaaaaaaaaaaaaaaaaaaaaaa",
"aaaaaaaaaaaaaaaaaaaaaaaaaaaaaa",
"aaaaaaaaaaaaaaaaaaaaaaaaaaaaaa",
"aaaaaaaaaaaaaaaaaaaaaaaaaaaaaa",
"aaaaaaaaaaaaaaaaaaaaaaaaaaaaaa",
"pppppppppppppppppppppppppppppp"};