/* XPM */
static char *maximize_prelight_xpm[] = {
"30 37 20 1",
"a c #FFFFFF",
"b c #FDFDFD",
"c c #F3F3F3",
"d c #EAEAEA",
"e c #E6E6E6",
"f c #E2E2E2",
"g c #F4F4F4",
"h c #F1F1F1",
"i c #E3E3E3",
"j c #E1E1E1",
"k c #FCFCFC",
"l c #E7E7E7",
"m c #FBFBFB",
"n c #E4E4E4",
"o c #F0F0F0",
"p c #2F2F2F",
"q c #303030",
"r c #EBEBEB",
"s c #E5E5E5",
"t c #313131",
"aaaaaaaaaaaaaaaaaaaaaaaaaaaaaa",
"aaaaaaaaaaaaaaaaaaaaaaaaaaaaaa",
"aaaaaaaaaaaaaaaaaaaaaaaaaaaaaa",
"aaaaaaaaaaaaaaaaaaaaaaaaaaaaaa",
"aaaaaaaaaaaaaaaaaaaaaaaaaaaaaa",
"aaaaaaaaaaaaaaaaaaaaaaaaaaaaaa",
"aaaaaaaaaaaaaaaaaaaaaaaaaaaaaa",
"aaaaaaaaaabcdeffedgbaaaaaaaaaa",
"aaaaaaaaahijjjjjjjjihaaaaaaaaa",
"aaaaaaakljjjjjjjjjjjjlmaaaaaaa",
"aaaaaaknjjjjjjjjjjjjjjnkaaaaaa",
"aaaaaaljjjjjjjjjjjjjjjjlaaaaaa",
"aaaaaojjjjjjjjjjjjjjjjjjhaaaaa",
"aaaabijjjjjjjjjjjjjjjjjjibaaaa",
"aaaacjjjjjjppppppppjjjjjjgaaaa",
"aaaadjjjjjjppqqqqppjjjjjjraaaa",
"aaaasjjjjjjptjjjjppjjjjjjeaaaa",
"aaaafjjjjjjptjjjjppjjjjjjfaaaa",
"aaaafjjjjjjptjjjjppjjjjjjiaaaa",
"aaaasjjjjjjptjjjjppjjjjjjeaaaa",
"aaaadjjjjjjppppppppjjjjjjraaaa",
"aaaagjjjjjjppppppppjjjjjjgaaaa",
"aaaabijjjjjjjjjjjjjjjjjjibaaaa",
"aaaaahjjjjjjjjjjjjjjjjjjhaaaaa",
"aaaaaaljjjjjjjjjjjjjjjjlaaaaaa",
"aaaaaaknjjjjjjjjjjjjjjnkaaaaaa",
"aaaaaaakljjjjjjjjjjjjlmaaaaaaa",
"aaaaaaaaahijjjjjjjjihaaaaaaaaa",
"aaaaaaaaaabgdeffergbaaaaaaaaaa",
"aaaaaaaaaaaaaaaaaaaaaaaaaaaaaa",
"aaaaaaaaaaaaaaaaaaaaaaaaaaaaaa",
"aaaaaaaaaaaaaaaaaaaaaaaaaaaaaa",
"aaaaaaaaaaaaaaaaaaaaaaaaaaaaaa",
"aaaaaaaaaaaaaaaaaaaaaaaaaaaaaa",
"aaaaaaaaaaaaaaaaaaaaaaaaaaaaaa",
"aaaaaaaaaaaaaaaaaaaaaaaaaaaaaa",
"jjjjjjjjjjjjjjjjjjjjjjjjjjjjjj"};