/* XPM */
static char *top_right_inactive_xpm[] = {
"12 37 9 1",
"a c #F9F9F9",
"b c #F5F5F5",
"c c #E7E7E7",
"d c #D4D4D4",
"e c None",
"f c #FAFAFA",
"g c #D8D8D8",
"h c #F6F6F6",
"i c #DDDDDD",
"abcddeeeeeee",
"fffffddeeeee",
"ffffffadeeee",
"ffffffffdeee",
"fffffffffdee",
"fffffffffade",
"ffffffffffge",
"fffffffffffd",
"fffffffffffd",
"fffffffffffc",
"fffffffffffh",
"fffffffffffa",
"ffffffffffff",
"ffffffffffff",
"ffffffffffff",
"ffffffffffff",
"ffffffffffff",
"ffffffffffff",
"ffffffffffff",
"ffffffffffff",
"ffffffffffff",
"ffffffffffff",
"ffffffffffff",
"ffffffffffff",
"ffffffffffff",
"ffffffffffff",
"ffffffffffff",
"ffffffffffff",
"ffffffffffff",
"ffffffffffff",
"ffffffffffff",
"ffffffffffff",
"ffffffffffff",
"ffffffffffff",
"ffffffffffff",
"ffffffffffff",
"iiiiiiiiiiif"};