/* XPM */
static char *top_left_inactive_xpm[] = {
"12 37 9 1",
"a c None",
"b c #D4D4D4",
"c c #E7E7E7",
"d c #F5F5F5",
"e c #F9F9F9",
"f c #FAFAFA",
"g c #D8D8D8",
"h c #F6F6F6",
"i c #DDDDDD",
"aaaaaaabbcde",
"aaaaabbfffff",
"aaaabeffffff",
"aaabffffffff",
"aabfffffffff",
"abefffffffff",
"agffffffffff",
"bfffffffffff",
"bfffffffffff",
"cfffffffffff",
"hfffffffffff",
"efffffffffff",
"ffffffffffff",
"ffffffffffff",
"ffffffffffff",
"ffffffffffff",
"ffffffffffff",
"ffffffffffff",
"ffffffffffff",
"ffffffffffff",
"ffffffffffff",
"ffffffffffff",
"ffffffffffff",
"ffffffffffff",
"ffffffffffff",
"ffffffffffff",
"ffffffffffff",
"ffffffffffff",
"ffffffffffff",
"ffffffffffff",
"ffffffffffff",
"ffffffffffff",
"ffffffffffff",
"ffffffffffff",
"ffffffffffff",
"ffffffffffff",
"fiiiiiiiiiii"};